<?xml version="1.0" standalone="no"?>
<!DOCTYPE svg PUBLIC "-//W3C//DTD SVG 20010904//EN"
 "http://www.w3.org/TR/2001/REC-SVG-20010904/DTD/svg10.dtd">
<svg version="1.0" xmlns="http://www.w3.org/2000/svg"
 width="4909.000000pt" height="2195.000000pt" viewBox="0 0 4909.000000 2195.000000"
 preserveAspectRatio="xMidYMid meet">

<g transform="translate(0.000000,2195.000000) scale(0.100000,-0.100000)"
fill="#000000" stroke="none">
<path d="M26238 19845 c-2 -1 -84 -5 -184 -9 -100 -4 -190 -8 -200 -10 -10 -2
-59 -7 -109 -11 -243 -18 -677 -90 -970 -160 -1222 -292 -2315 -901 -3063
-1705 -594 -638 -1003 -1340 -1298 -2225 -166 -499 -296 -1103 -349 -1620 -3
-33 -8 -73 -10 -90 -2 -16 -7 -73 -11 -125 -3 -52 -8 -97 -9 -100 -2 -3 -6
-72 -10 -155 -4 -82 -9 -161 -10 -175 -1 -14 -3 -47 -4 -75 l-1 -50 -72 -40
c-39 -22 -119 -73 -176 -113 -583 -406 -953 -1047 -1046 -1812 -19 -155 -14
-586 8 -725 62 -384 156 -675 322 -995 428 -825 1203 -1396 2076 -1531 151
-24 469 -33 608 -18 417 45 859 216 1171 454 l61 46 116 -77 c1207 -800 2583
-1092 3972 -843 160 28 354 72 509 114 l131 36 68 -41 c81 -48 199 -92 308
-115 95 -21 309 -24 403 -6 406 77 711 323 792 639 94 368 -153 715 -586 823
-94 24 -326 34 -420 18 -175 -28 -324 -85 -459 -173 -211 -137 -356 -354 -373
-557 -4 -51 -10 -70 -22 -73 -204 -62 -562 -130 -841 -160 -210 -23 -594 -28
-810 -11 -889 73 -1704 378 -2488 932 -137 97 -416 316 -441 346 -11 14 -8 28
22 99 74 174 105 313 114 508 33 783 -469 1473 -1192 1640 -305 70 -601 37
-870 -97 -282 -141 -495 -395 -606 -720 -100 -296 -112 -604 -34 -901 113
-427 416 -816 795 -1019 189 -101 379 -152 595 -160 261 -9 478 42 675 159
l100 59 125 -103 c68 -56 122 -105 119 -110 -14 -22 -215 -144 -315 -192 -332
-157 -700 -200 -1074 -125 -698 141 -1290 676 -1525 1379 -69 208 -99 375
-107 601 -9 263 24 492 104 723 46 133 157 348 241 466 80 113 278 315 383
393 302 221 655 337 1029 337 681 0 1330 -401 1702 -1050 182 -319 269 -652
268 -1030 0 -91 -7 -205 -14 -255 -13 -85 -13 -91 4 -105 70 -57 237 -186 297
-228 l72 -51 40 122 c46 143 83 300 105 447 20 135 37 387 31 470 -2 36 -7
109 -10 163 -17 273 -95 613 -204 885 -329 821 -990 1457 -1786 1718 l-100 33
-17 113 c-18 119 -44 319 -53 403 -3 28 -9 93 -15 145 -31 302 -34 935 -6
1220 66 677 210 1223 461 1745 514 1070 1494 1897 2821 2379 365 132 845 254
1204 306 94 14 139 30 78 28 -21 -1 -39 -2 -40 -3z"/>
<path d="M28703 15566 c-137 -43 -281 -202 -354 -389 -72 -186 -102 -371 -102
-617 2 -758 402 -1453 836 -1452 449 2 698 759 507 1540 -112 459 -362 820
-631 911 -73 24 -189 27 -256 7z"/>
<path d="M25280 15119 c-226 -27 -416 -227 -518 -549 -85 -268 -101 -578 -46
-905 92 -546 364 -983 699 -1121 63 -26 81 -29 180 -29 132 1 188 19 289 96
355 269 470 1008 259 1664 -138 427 -384 736 -657 825 -57 18 -143 26 -206 19z"/>
<path d="M28855 11204 c-410 -235 -859 -389 -1325 -453 -205 -28 -277 -33
-489 -33 -203 0 -312 6 -466 27 -55 8 -101 12 -104 10 -6 -7 76 -145 147 -245
89 -126 271 -312 385 -394 226 -164 479 -245 722 -233 290 15 536 133 756 365
202 212 364 534 439 871 31 139 30 140 -65 85z"/>
<path d="M28968 5280 c-271 -31 -489 -129 -654 -294 -169 -169 -244 -354 -244
-598 1 -234 69 -395 240 -569 158 -160 291 -238 803 -470 353 -160 429 -219
458 -358 21 -104 -18 -229 -94 -298 -137 -123 -430 -145 -666 -49 -132 53
-284 176 -394 316 -28 36 -54 69 -58 74 -9 11 -448 -313 -449 -331 0 -21 117
-188 184 -260 263 -284 620 -435 1031 -435 439 -1 780 159 974 456 53 82 103
206 122 307 17 92 15 300 -4 381 -39 162 -106 275 -235 400 -144 139 -301 232
-638 378 -535 233 -613 294 -614 475 0 121 58 208 175 261 139 63 346 54 500
-24 97 -48 243 -181 293 -264 9 -16 20 -28 24 -28 14 0 438 331 438 341 0 23
-125 190 -192 259 -161 162 -351 262 -587 310 -116 23 -303 33 -413 20z"/>
<path d="M32468 5279 c-217 -21 -408 -77 -613 -179 -382 -191 -678 -528 -810
-924 -67 -200 -80 -286 -79 -531 0 -190 3 -234 22 -325 96 -442 341 -801 712
-1042 388 -252 907 -337 1360 -222 52 13 98 24 101 24 4 0 38 -39 76 -87 466
-600 1072 -922 1843 -983 208 -16 535 3 710 43 l55 12 3 246 c2 190 -1 248
-10 256 -8 5 -50 6 -103 2 -101 -7 -616 -4 -655 4 -14 3 -59 11 -100 17 -238
35 -466 116 -683 242 -168 98 -395 297 -531 465 l-58 72 39 32 c21 18 77 72
124 120 288 295 449 692 451 1109 1 243 -31 417 -114 623 -87 214 -190 369
-358 537 -136 136 -261 227 -425 309 -203 102 -407 160 -635 180 -129 12 -195
12 -322 0z m351 -610 c408 -59 736 -380 816 -800 21 -112 21 -339 0 -448 -76
-393 -345 -681 -730 -782 -125 -33 -348 -37 -485 -9 -381 78 -654 338 -758
719 -24 88 -26 113 -26 291 -1 168 2 207 21 280 103 404 404 685 803 749 119
20 221 19 359 0z"/>
<path d="M39887 5283 c-4 -7 -1127 -2563 -1397 -3181 l-19 -42 350 2 350 3 88
203 87 203 644 -1 c354 0 648 -4 651 -8 4 -4 45 -95 91 -202 l84 -195 347 -3
c191 -1 347 1 347 6 0 19 -1401 3206 -1412 3214 -16 10 -205 11 -211 1z m322
-1763 l198 -505 -203 -3 c-111 -1 -297 -1 -413 0 l-210 3 53 135 c29 74 116
297 194 495 77 198 146 374 153 390 10 28 12 29 20 10 5 -11 99 -247 208 -525z"/>
<path d="M4266 5264 c-415 -75 -696 -341 -746 -707 -19 -133 2 -283 55 -402
37 -85 96 -164 184 -248 143 -136 227 -184 855 -486 260 -125 390 -221 445
-330 37 -72 54 -158 48 -241 -24 -301 -269 -490 -633 -490 -316 0 -594 152
-815 446 l-70 93 -138 -102 -139 -102 26 -45 c43 -77 146 -203 232 -283 263
-247 606 -372 974 -354 588 29 981 408 953 922 -12 220 -85 376 -248 529 -143
135 -256 201 -771 450 -306 148 -392 200 -466 280 -60 66 -88 124 -102 210
-48 303 184 526 547 526 283 0 523 -122 705 -359 l26 -35 137 103 136 102 -18
29 c-34 58 -139 175 -211 236 -166 138 -381 233 -596 263 -105 15 -274 12
-370 -5z"/>
<path d="M17588 5269 c-108 -11 -297 -60 -406 -103 -516 -207 -875 -635 -993
-1184 -30 -141 -37 -419 -15 -572 64 -443 287 -821 635 -1078 197 -146 406
-237 671 -293 88 -19 138 -22 310 -23 175 -1 221 3 319 22 672 135 1159 614
1302 1282 31 143 34 472 5 625 -130 697 -680 1221 -1384 1319 -109 16 -328 18
-444 5z m432 -354 c167 -28 334 -94 485 -193 87 -58 230 -194 294 -281 105
-142 187 -330 228 -521 25 -120 25 -420 0 -539 -88 -411 -311 -713 -655 -888
-193 -98 -325 -128 -567 -128 -197 0 -265 9 -410 57 -423 140 -719 482 -821
949 -26 119 -27 438 -1 557 71 321 235 584 477 764 142 106 335 189 517 222
107 19 336 20 453 1z"/>
<path d="M6523 4163 c3 -1187 0 -1134 72 -1350 141 -423 460 -696 910 -781
138 -26 437 -22 572 6 501 107 827 447 930 967 16 82 18 184 20 1158 l4 1067
-185 0 c-156 0 -185 -2 -190 -15 -3 -9 -6 -479 -6 -1045 0 -868 -3 -1041 -15
-1107 -23 -120 -43 -181 -91 -273 -104 -203 -255 -325 -489 -396 -83 -25 -104
-28 -270 -28 -212 -1 -288 14 -445 91 -81 40 -109 61 -191 142 -84 84 -102
109 -147 201 -28 58 -62 143 -74 190 -24 94 -21 -66 -31 1745 l-2 490 -188 3
-188 2 4 -1067z"/>
<path d="M10200 3646 l0 -1586 184 0 c163 0 185 2 190 17 4 9 6 307 6 661 l-2
644 362 -1 c212 -1 411 3 483 10 350 33 605 172 759 415 81 127 120 243 138
411 25 245 -47 497 -195 676 -128 155 -315 261 -555 314 -64 14 -168 17 -722
20 l-648 4 0 -1585z m1315 1220 c214 -63 355 -205 401 -402 20 -87 19 -240 -1
-319 -54 -209 -203 -350 -422 -402 -69 -16 -127 -18 -496 -18 l-417 0 -3 583
-2 583 440 -4 c384 -3 448 -6 500 -21z"/>
<path d="M13280 3645 l0 -1585 190 0 190 0 0 663 0 662 433 1 c468 0 535 6
695 60 372 124 602 430 616 822 5 130 -7 227 -45 344 -88 274 -294 471 -589
562 -162 50 -217 54 -877 55 l-613 1 0 -1585z m1315 1222 c215 -61 359 -207
405 -413 16 -69 13 -251 -5 -317 -52 -198 -190 -331 -402 -389 -73 -20 -107
-22 -505 -26 l-428 -4 0 587 0 586 438 -3 c373 -4 446 -7 497 -21z"/>
<path d="M20440 3645 l0 -1585 190 0 190 0 0 665 0 665 338 -1 337 0 190 -259
c105 -142 325 -441 490 -664 l300 -406 219 0 218 0 -18 27 c-10 16 -74 104
-143 198 -525 714 -842 1148 -839 1149 2 2 37 15 79 30 216 77 415 263 500
466 55 129 73 229 72 390 -1 155 -15 233 -67 360 -100 249 -327 435 -624 511
-134 34 -235 39 -839 39 l-593 0 0 -1585z m1315 1221 c110 -32 186 -76 261
-151 103 -103 151 -217 158 -376 11 -248 -95 -440 -296 -538 -136 -66 -179
-71 -648 -71 l-410 0 0 581 0 580 438 -4 c379 -3 445 -6 497 -21z"/>
<path d="M23290 5060 l0 -170 555 -2 555 -3 0 -1397 c0 -768 3 -1403 6 -1412
5 -14 31 -16 190 -16 l184 0 0 1415 0 1415 560 0 560 0 0 170 0 170 -1305 0
-1305 0 0 -170z"/>
<path d="M35176 5214 c-10 -25 -5 -1850 5 -1974 42 -503 278 -882 674 -1082
212 -108 399 -149 672 -149 196 0 329 22 499 82 419 148 703 483 806 952 23
102 23 105 26 1145 l3 1042 -325 0 -325 0 -3 -1037 c-4 -1164 2 -1076 -80
-1243 -73 -149 -204 -258 -378 -312 -66 -20 -95 -23 -235 -22 -146 0 -167 2
-240 27 -235 79 -379 243 -429 490 -14 68 -16 200 -16 1072 0 546 -3 1001 -6
1009 -5 14 -45 16 -324 16 -278 0 -319 -2 -324 -16z"/>
<path d="M42280 3644 l0 -1586 623 5 c671 4 723 8 934 63 513 133 909 463
1087 908 85 212 111 360 110 636 0 237 -14 331 -75 515 -166 502 -586 862
-1150 989 -216 48 -309 54 -941 55 l-588 2 0 -1587z m1330 968 c372 -90 615
-299 713 -617 75 -241 59 -561 -38 -780 -89 -202 -267 -376 -477 -467 -178
-77 -317 -98 -645 -98 l-233 0 0 996 0 996 298 -5 c253 -4 310 -8 382 -25z"/>
</g>
</svg>
